/* XPM */
static char * blacksphere32_xpm[] = {
"32 32 314 2",
"  	c None",
". 	c #363636",
"+ 	c #393939",
"@ 	c #3B3B3B",
"# 	c #3D3D3D",
"$ 	c #3E3E3E",
"% 	c #3C3C3C",
"& 	c #3A3A3A",
"* 	c #343434",
"= 	c #3F3F3F",
"- 	c #383838",
"; 	c #353535",
"> 	c #373737",
", 	c #313131",
"' 	c #4A3B3B",
") 	c #483B3B",
"! 	c #2B2424",
"~ 	c #5D3333",
"{ 	c #5F3535",
"] 	c #512828",
"^ 	c #463535",
"/ 	c #653232",
"( 	c #4D3A3A",
"_ 	c #4D3B3B",
": 	c #5C3636",
"< 	c #673131",
"[ 	c #652F2F",
"} 	c #563131",
"| 	c #4A2E2E",
"1 	c #3B3131",
"2 	c #5C2626",
"3 	c #291F1F",
"4 	c #662F2F",
"5 	c #6E3030",
"6 	c #6B3131",
"7 	c #523939",
"8 	c #702F2F",
"9 	c #403D3D",
"0 	c #6D2E2E",
"a 	c #3F3C3C",
"b 	c #3E3B3B",
"c 	c #6B2C2C",
"d 	c #423636",
"e 	c #642C2C",
"f 	c #4B3131",
"g 	c #702323",
"h 	c #442C2C",
"i 	c #2F2F2F",
"j 	c #622222",
"k 	c #4D2020",
"l 	c #6F3131",
"m 	c #6E2F2F",
"n 	c #633333",
"o 	c #7E2A2A",
"p 	c #563737",
"q 	c #683030",
"r 	c #872727",
"s 	c #4C3A3A",
"t 	c #6C2D2D",
"u 	c #5E3030",
"v 	c #5D3030",
"w 	c #6A2B2B",
"x 	c #562E2E",
"y 	c #702626",
"z 	c #5F2929",
"A 	c #333333",
"B 	c #4F2A2A",
"C 	c #7D1E1E",
"D 	c #472828",
"E 	c #2C2C2C",
"F 	c #5F1F1F",
"G 	c #5B1F1F",
"H 	c #6F2F2F",
"I 	c #453D3D",
"J 	c #5E3535",
"K 	c #732E2E",
"L 	c #7A2B2B",
"M 	c #413D3D",
"N 	c #812828",
"O 	c #772B2B",
"P 	c #543636",
"Q 	c #752B2B",
"R 	c #692B2B",
"S 	c #692A2A",
"T 	c #732626",
"U 	c #572C2C",
"V 	c #722424",
"W 	c #303030",
"X 	c #7B1E1E",
"Y 	c #632222",
"Z 	c #462626",
"` 	c #2F2828",
" .	c #5E1D1D",
"..	c #5C1B1B",
"+.	c #141414",
"@.	c #762D2D",
"#.	c #593737",
"$.	c #712D2D",
"%.	c #832828",
"&.	c #493B3B",
"*.	c #7B2929",
"=.	c #543434",
"-.	c #682C2C",
";.	c #6A2A2A",
">.	c #682A2A",
",.	c #682929",
"'.	c #682727",
").	c #4D2C2C",
"!.	c #6A2424",
"~.	c #781F1F",
"{.	c #312D2D",
"].	c #791C1C",
"^.	c #601F1F",
"/.	c #432323",
"(.	c #631B1B",
"_.	c #5A1A1A",
":.	c #5A1919",
"<.	c #121212",
"[.	c #453232",
"}.	c #6D3030",
"|.	c #623333",
"1.	c #6F2E2E",
"2.	c #872626",
"3.	c #4E3737",
"4.	c #722B2B",
"5.	c #6C2C2C",
"6.	c #533333",
"7.	c #682B2B",
"8.	c #6C2A2A",
"9.	c #672828",
"0.	c #662626",
"a.	c #662525",
"b.	c #4A2A2A",
"c.	c #632323",
"d.	c #7C1C1C",
"e.	c #382828",
"f.	c #6E1C1C",
"g.	c #4C1E1E",
"h.	c #571A1A",
"i.	c #571717",
"j.	c #591515",
"k.	c #171010",
"l.	c #7C2B2B",
"m.	c #6E2E2E",
"n.	c #792B2B",
"o.	c #7B2A2A",
"p.	c #7E2828",
"q.	c #852525",
"r.	c #692C2C",
"s.	c #6B2B2B",
"t.	c #6F2929",
"u.	c #7A2222",
"v.	c #7B2121",
"w.	c #652424",
"x.	c #672222",
"y.	c #612121",
"z.	c #721C1C",
"A.	c #771818",
"B.	c #5F1C1C",
"C.	c #711515",
"D.	c #581616",
"E.	c #6B1010",
"F.	c #150E0E",
"G.	c #862727",
"H.	c #6B2F2F",
"I.	c #6B2D2D",
"J.	c #6D2D2D",
"K.	c #6E2C2C",
"L.	c #7C2727",
"M.	c #662C2C",
"N.	c #612A2A",
"O.	c #6C2727",
"P.	c #712424",
"Q.	c #712323",
"R.	c #652323",
"S.	c #6F1F1F",
"T.	c #4B2424",
"U.	c #661C1C",
"V.	c #681919",
"W.	c #591919",
"X.	c #581717",
"Y.	c #5B1515",
"Z.	c #4D1414",
"`.	c #581111",
" +	c #640E0E",
".+	c #0A0A0A",
"++	c #852727",
"@+	c #6E2D2D",
"#+	c #543333",
"$+	c #6C2B2B",
"%+	c #453434",
"&+	c #642A2A",
"*+	c #682828",
"=+	c #3E3131",
"-+	c #6D2525",
";+	c #6A2323",
">+	c #432A2A",
",+	c #4F2727",
"'+	c #661F1F",
")+	c #651E1E",
"!+	c #272727",
"~+	c #5D1C1C",
"{+	c #5B1A1A",
"]+	c #2F1F1F",
"^+	c #561717",
"/+	c #561515",
"(+	c #381616",
"_+	c #401212",
":+	c #500E0E",
"<+	c #5A0C0C",
"[+	c #6C2929",
"}+	c #722C2C",
"|+	c #583232",
"1+	c #6B2A2A",
"2+	c #323232",
"3+	c #5F2525",
"4+	c #6F2020",
"5+	c #302C2C",
"6+	c #3C2828",
"7+	c #6B1C1C",
"8+	c #4B2121",
"9+	c #242424",
"0+	c #5B1919",
"a+	c #1D1D1D",
"b+	c #531414",
"c+	c #531111",
"d+	c #151515",
"e+	c #450E0E",
"f+	c #500B0B",
"g+	c #340808",
"h+	c #482828",
"i+	c #752929",
"j+	c #5B2F2F",
"k+	c #692929",
"l+	c #672929",
"m+	c #652626",
"n+	c #612525",
"o+	c #622323",
"p+	c #582222",
"q+	c #2A2A2A",
"r+	c #332525",
"s+	c #541E1E",
"t+	c #4E1C1C",
"u+	c #212121",
"v+	c #521717",
"w+	c #551515",
"x+	c #191919",
"y+	c #501111",
"z+	c #4D0E0E",
"A+	c #111111",
"B+	c #470A0A",
"C+	c #530707",
"D+	c #0B0505",
"E+	c #562F2F",
"F+	c #5C2929",
"G+	c #622525",
"H+	c #4D2828",
"I+	c #2D2D2D",
"J+	c #592222",
"K+	c #3A2626",
"L+	c #262626",
"M+	c #272323",
"N+	c #321F1F",
"O+	c #4A1919",
"P+	c #3C1616",
"Q+	c #4C1212",
"R+	c #430E0E",
"S+	c #3F0C0C",
"T+	c #0B0B0B",
"U+	c #390707",
"V+	c #180505",
"W+	c #2A2828",
"X+	c #463131",
"Y+	c #4C2D2D",
"Z+	c #4D2A2A",
"`+	c #562525",
" @	c #2B2B2B",
".@	c #4A2121",
"+@	c #232323",
"@@	c #1E1E1E",
"#@	c #401717",
"$@	c #161616",
"%@	c #3E1010",
"&@	c #101010",
"*@	c #2F0B0B",
"=@	c #260909",
"-@	c #070707",
";@	c #1A0303",
">@	c #000000",
",@	c #412626",
"'@	c #292929",
")@	c #2A2323",
"!@	c #222222",
"~@	c #1F1F1F",
"{@	c #1A1A1A",
"]@	c #1E1616",
"^@	c #270D0D",
"/@	c #090909",
"(@	c #050505",
"_@	c #020202",
":@	c #2E2E2E",
"<@	c #1B1B1B",
"[@	c #131313",
"}@	c #0D0D0D",
"|@	c #030303",
"1@	c #252525",
"2@	c #171717",
"3@	c #0F0F0F",
"4@	c #080808",
"5@	c #010101",
"6@	c #202020",
"7@	c #0E0E0E",
"8@	c #0C0C0C",
"9@	c #060606",
"                                                                ",
"                                                                ",
"                        . + @ # $ % & *                         ",
"                    & % % # $ $ = = = = = &                     ",
"                - @ % # # $ $ = = = = = = = $ ;                 ",
"              & % % # $ $ = = = = = = = = $ $ # >               ",
"            @ % # $ $ $ = = = = = = = $ $ $ # % @ >             ",
"          @ % # $ $ = = = = = = = = $ $ # # % @ & + ,           ",
"          # $ $ $ = = = = = ' = $ ) $ # % @ & + - > . !         ",
"        ~ $ $ = = = = = = = { $ $ ~ # % @ & + - > ; * ]         ",
"      ^ / $ ( _ = = = : = $ < $ # [ @ & } - > . | 1 , 2 3       ",
"      4 5 = { 6 = = 7 8 9 $ 0 a b c & d e f ; * g h i j k       ",
"      l m = n o p = q r s # t u v w - x y z A B C D E F G       ",
"      H 5 I J K L M N O P Q c c R S T U V g W X Y Z `  ...+.    ",
"      H m @.#.$.%.&.*.t =.-.w ;.>.,.'.).!.~.{.].^./.(._.:.<.    ",
"    [.H H }.|.1.2.3.4.5.6.7.8.,.9.0.a.b.c.d.e.f. .g.h.i.j.k.    ",
"      l.m.n.o.m.p.q.r.s.t.>.y u.v.a.w.x.y.z.A.B._.C.D.j.E.F.    ",
"      G.1.H.I.J.K.L.M.;.N.O.P.Q.X R.S.T.^.U.V.W.X.Y.Z.`. +.+    ",
"      ++@+=.#+$+w %+&+*+=+-+;+>+,+'+)+!+~+{+]+^+/+(+_+:+<+      ",
"      [+}+|+& 1+S . 9.0.2+3+4+5+6+7+8+9+0+i.a+b+c+d+e+f+g+      ",
"      h+i+j+- k+l+* m+n+i o+p+q+r+s+t+u+v+w+x+y+z+A+B+C+D+      ",
"        [.E+. N.F+2+G+H+I+J+K+L+M+N+O+a+P+Q+d+R+S+T+U+V+        ",
"        W+X+* Y+Z+i `+ @q+.@L++@u+@@#@x+$@%@&@*@=@-@;@>@        ",
"           @2+W i I+,@'@L+)@!@~@a+{@]@d+<.^@T+/@(@_@>@          ",
"             @:@ @q+!+L++@u+@@<@x+$@[@&@}@.+-@|@>@>@            ",
"              1@'@L+9+!@~@a+{@2@d+<.3@T+4@(@5@>@>@              ",
"                a++@6@@@<@x+$@[@&@}@.+-@|@>@>@>@                ",
"                    2@{@2@d+<.7@T+4@(@5@>@>@>@                  ",
"                        8@}@T+/@9@|@>@>@>@                      ",
"                                                                ",
"                                                                ",
"                                                                "};
